<svg xmlns="http://www.w3.org/2000/svg" viewBox="0 0 100 100">
  <defs>
    <linearGradient id="b" x1="20" y1="14" x2="80" y2="86" gradientUnits="userSpaceOnUse">
      <stop offset="0%" stop-color="#7fd9e6"/>
      <stop offset="46%" stop-color="#2e8fa8"/>
      <stop offset="100%" stop-color="#16457e"/>
    </linearGradient>
    <radialGradient id="i" cx="0.42" cy="0.34" r="0.78">
      <stop offset="0%" stop-color="#bfeef5"/>
      <stop offset="55%" stop-color="#3f9ab4"/>
      <stop offset="100%" stop-color="#0d2f52"/>
    </radialGradient>
  </defs>
  <rect width="100" height="100" rx="20" fill="#02060f"/>
  <g fill="url(#b)">
    <path d="M50 21.5C66.5 21.5 78.8 32.8 78.8 47.4C78.8 58.6 71.2 66.8 60.4 68.6C68.4 63.4 72.4 56.2 72.4 47.4C72.4 35.8 63.2 27.8 50 27.8Z"/>
    <path transform="rotate(120 50 50)" d="M50 21.5C66.5 21.5 78.8 32.8 78.8 47.4C78.8 58.6 71.2 66.8 60.4 68.6C68.4 63.4 72.4 56.2 72.4 47.4C72.4 35.8 63.2 27.8 50 27.8Z"/>
    <path transform="rotate(240 50 50)" d="M50 21.5C66.5 21.5 78.8 32.8 78.8 47.4C78.8 58.6 71.2 66.8 60.4 68.6C68.4 63.4 72.4 56.2 72.4 47.4C72.4 35.8 63.2 27.8 50 27.8Z"/>
  </g>
  <path d="M31.5 50C38.5 40.6 61.5 40.6 68.5 50C61.5 59.4 38.5 59.4 31.5 50Z" fill="#03101f" stroke="#bfeef5" stroke-width="2.4" stroke-linejoin="round"/>
  <circle cx="50" cy="50" r="7.2" fill="url(#i)"/>
  <circle cx="52.4" cy="47.2" r="2.1" fill="#eaf8fc"/>
</svg>
